<?xml version="1.0" encoding="UTF-8" standalone="no"?><svg width="1536" height="1536" viewBox="0 0 1536 1536" fill="none" xmlns="http://www.w3.org/2000/svg">
<g clip-path="url(#clip0_153_8)">
<rect width="1536" height="1536" rx="195" fill="black"/>
<circle cx="765.041" cy="791.923" r="666.923" fill="white"/>
<path d="M1240.99 1308.63V439.579L1115.93 564.723C1032.56 514.318 928.341 514.318 844.969 564.723L719.911 439.579V787.2C431.583 787.2 198.836 1020.11 198.836 1308.63C103.306 1308.63 25.1443 1230.42 25.1443 1134.82C25.1443 1039.23 103.306 961.011 198.836 961.011C247.47 961.011 285.682 922.772 285.682 874.105C285.682 825.438 247.47 787.2 198.836 787.2C7.77512 787.2 -148.547 943.63 -148.547 1134.82C-148.547 1326.01 104.439 1407 295.5 1407L755 1474.5L1240.99 1482.44C1289.62 1482.44 1327.83 1444.2 1327.83 1395.54C1327.83 1346.87 1289.62 1308.63 1240.99 1308.63ZM850.18 787.2C825.863 787.2 806.757 768.081 806.757 743.747C806.757 719.414 825.863 700.295 850.18 700.295V787.2ZM893.602 787.2V700.295C917.919 700.295 937.025 719.414 937.025 743.747C937.025 768.081 917.919 787.2 893.602 787.2ZM1067.29 787.2C1042.98 787.2 1023.87 768.081 1023.87 743.747C1023.87 719.414 1042.98 700.295 1067.29 700.295V787.2ZM1110.72 787.2V700.295C1135.03 700.295 1154.14 719.414 1154.14 743.747C1154.14 768.081 1135.03 787.2 1110.72 787.2Z" fill="black"/>
</g>
<defs>
<clipPath id="clip0_153_8">
<rect width="1536" height="1536" fill="white"/>
</clipPath>
</defs>
</svg>
